# xmcd
#
# Track frame offsets: 
#        150
#        16285
#        25797
#        40407
#        62292
#        77692
#        90390
#        107065
#        121937
#        138362
#        161112
#        176532
#
# Disc length: 2566 seconds
#
# Revision: 5
# Processed by: cddbd v1.5.2PL0 Copyright (c) Steve Scherf et al.
# Submitted via: ExactAudioCopy v0.99pb4
#
DISCID=8b0a040c
DTITLE=Various Artist - Soul Hits Of The '70s: Didn't It Blow Your Mind!, Vol
DTITLE=6
DYEAR=1991
DGENRE=Soul
TTITLE0=The Dramatics - Whatcha See Is Whatcha Get
TTITLE1=Bill Withers - Ain't No Sunshine
TTITLE2=Laura Lee - Women's Love Rights
TTITLE3=The Dells - The Love We Had (Stays On My Mind)
TTITLE4=The Persuaders - Thin Line Between Love and Hate
TTITLE5=The 8Th Day - You've Got To Crawl (Before You Walk)
TTITLE6=The Free Movement - I've Found Someone Of My Own
TTITLE7=Isaac Hayes - Theme From Shaft
TTITLE8=Lou Rawls - A Natural Man
TTITLE9=The Chi-Lites - Have You Seen Her
TTITLE10=Donnie Elbert - Where Did Our Love Go
TTITLE11=The Staple Singers - Respect Yourself
EXTD=
EXTT0=The Dramatics
EXTT1=Bill Withers
EXTT2=Laura Lee
EXTT3=The Dells
EXTT4=The Persuaders
EXTT5=The 8th Day
EXTT6=The Free Movement
EXTT7=Issac Hayes
EXTT8=Lou Rawls
EXTT9=The Chi-Lites
EXTT10=Donnie Elbert
EXTT11=The Staple Singers
PLAYORDER=
